# xmcd
# 
# Track frame offsets:
#     150
#     12311
#     21666
#     29417
#     43851
#     61484
#     79763
#     96176
#     109645
#     119054
#     132071
#     141256
#     153974
#     166442
#     176194
#     188570
# 
# Disc length: 2709
# 
# Revision: 2
# Processed by: cddbd v1.5.2PL0 Copyright (c) Steve Scherf et al.
# Submitted via: fre:ac v1.0.17
# 
DISCID=df0a9310
DTITLE=Various Artist - Sensacional Soul 2-Cd2
DYEAR=2009
DGENRE=Soul
TTITLE0=Los Kifers - El Sol Es Una Droga
TTITLE1=Henry - Lo Que Puede Ocorrir Con El Café
TTITLE2=Los Pops - No, No, No
TTITLE3=Lone Star - La Maquina Infernal
TTITLE4=Conexion -  I Don't Know What To Do
TTITLE5=Evolution - I'm Walkin' High
TTITLE6=Wagon - Para Siempre
TTITLE7=Los Pekenikes - Polucion
TTITLE8=Los Ros - Yeah!
TTITLE9=Manolo Y Ramon - Lagrimas Sonrisas
TTITLE10=Joe Cogra Group - Darkness
TTITLE11=Ritmo Pilé - Pile Beat
TTITLE12=Peter Soto  - Boom Boom
TTITLE13=Los Talismanes - East Side Story
TTITLE14=Los 5 Diablos - El Fuego
TTITLE15=Alex Y Los Findes - Es Mejor Dejarlo Como Està
EXTD=YEAR: 2009
EXTT0=
EXTT1=
EXTT2=
EXTT3=
EXTT4=
EXTT5=
EXTT6=
EXTT7=
EXTT8=
EXTT9=
EXTT10=
EXTT11=
EXTT12=
EXTT13=
EXTT14=
EXTT15=
PLAYORDER=
